<svg id="svg" xmlns="http://www.w3.org/2000/svg" xmlns:xlink="http://www.w3.org/1999/xlink" preserveAspectRatio="none" viewBox="0, 0, 400,80.8"><g id="svgg"><path id="path0" d="M143.305 9.706 C 143.612 9.920,143.454 9.955,142.891 9.796 C 141.589 9.430,139.320 9.967,140.047 10.470 C 140.446 10.746,140.358 10.785,139.734 10.610 C 138.639 10.304,136.730 10.763,137.036 11.259 C 137.171 11.477,136.837 11.524,136.234 11.373 C 135.601 11.214,135.200 11.281,135.200 11.544 C 135.200 11.782,134.901 11.860,134.534 11.719 C 134.121 11.561,133.967 11.624,134.129 11.885 C 134.443 12.393,131.386 13.246,130.487 12.901 C 130.071 12.742,129.967 12.823,130.168 13.148 C 130.387 13.502,130.163 13.565,129.334 13.384 C 128.422 13.184,128.318 13.226,128.800 13.600 C 129.282 13.974,129.178 14.016,128.266 13.816 C 127.444 13.636,127.214 13.699,127.428 14.046 C 127.620 14.356,127.553 14.418,127.239 14.224 C 126.534 13.788,124.709 14.329,125.045 14.874 C 125.211 15.142,125.144 15.213,124.880 15.050 C 124.237 14.652,122.357 15.207,122.665 15.704 C 122.812 15.943,122.732 16.005,122.480 15.850 C 121.888 15.484,119.947 15.990,120.224 16.438 C 120.343 16.632,120.162 16.684,119.821 16.553 C 119.478 16.421,119.200 16.524,119.200 16.781 C 119.200 17.037,119.035 17.145,118.834 17.021 C 118.633 16.897,118.398 17.006,118.312 17.264 C 118.226 17.522,117.588 17.733,116.895 17.733 C 116.202 17.733,115.740 17.903,115.868 18.110 C 116.005 18.332,115.732 18.369,115.200 18.200 C 114.587 18.006,114.387 18.056,114.573 18.357 C 114.738 18.623,114.559 18.774,114.123 18.736 C 112.647 18.608,111.954 18.801,112.238 19.262 C 112.416 19.549,112.348 19.615,112.058 19.436 C 111.404 19.032,109.932 19.566,110.256 20.091 C 110.405 20.332,110.339 20.410,110.108 20.267 C 109.598 19.952,107.200 20.743,107.200 21.227 C 107.200 21.418,106.930 21.471,106.600 21.345 C 106.270 21.218,106.000 21.297,106.000 21.520 C 106.000 21.965,102.585 23.252,102.262 22.928 C 101.916 22.582,100.376 23.237,100.617 23.628 C 100.743 23.832,100.521 23.971,100.123 23.936 C 98.738 23.816,97.954 24.003,98.197 24.395 C 98.342 24.630,98.163 24.684,97.755 24.527 C 97.317 24.359,97.165 24.420,97.335 24.695 C 97.507 24.973,97.297 25.046,96.738 24.900 C 96.095 24.732,95.958 24.808,96.199 25.199 C 96.410 25.539,96.367 25.627,96.079 25.449 C 95.579 25.140,92.769 26.204,92.366 26.855 C 92.222 27.088,91.648 27.306,91.091 27.339 C 90.533 27.373,90.160 27.535,90.262 27.700 C 90.453 28.009,89.550 28.174,88.277 28.064 C 87.879 28.029,87.654 28.164,87.777 28.363 C 87.900 28.562,87.613 28.624,87.138 28.500 C 86.495 28.332,86.358 28.408,86.599 28.799 C 86.804 29.131,86.767 29.227,86.498 29.060 C 85.983 28.743,80.767 30.423,81.016 30.826 C 81.113 30.982,80.968 31.095,80.696 31.076 C 80.423 31.058,79.317 31.459,78.238 31.967 C 77.159 32.476,75.854 32.917,75.338 32.946 C 74.823 32.976,74.400 33.147,74.400 33.327 C 74.400 33.507,74.017 33.532,73.550 33.384 C 72.925 33.186,72.782 33.248,73.012 33.619 C 73.203 33.928,73.162 34.023,72.906 33.865 C 72.553 33.647,67.526 35.019,65.600 35.859 C 65.270 36.003,64.820 36.180,64.600 36.251 C 64.380 36.323,62.940 36.832,61.400 37.382 C 59.860 37.932,58.375 38.302,58.100 38.204 C 57.825 38.105,57.600 38.210,57.600 38.436 C 57.600 38.662,57.443 38.750,57.251 38.632 C 57.060 38.513,55.395 38.869,53.551 39.422 C 51.708 39.976,49.819 40.511,49.353 40.612 C 48.888 40.714,47.808 41.088,46.953 41.445 C 46.099 41.802,45.400 42.061,45.400 42.021 C 45.400 41.981,45.130 42.036,44.800 42.144 C 42.664 42.840,41.177 43.191,39.600 43.371 C 38.610 43.485,36.000 44.056,33.800 44.642 C 31.600 45.227,29.215 45.792,28.500 45.897 C 27.785 46.002,27.200 46.278,27.200 46.510 C 27.200 46.743,27.097 46.830,26.970 46.703 C 26.844 46.577,25.539 46.818,24.070 47.240 C 22.602 47.661,20.084 48.032,18.476 48.064 C 16.548 48.103,15.730 48.249,16.076 48.495 C 16.426 48.743,16.188 48.797,15.362 48.656 C 13.911 48.408,9.551 48.797,9.772 49.155 C 9.855 49.290,9.103 49.418,8.100 49.440 C 5.557 49.495,4.276 51.419,5.781 52.924 C 6.100 53.243,6.250 53.616,6.114 53.752 C 5.978 53.889,7.202 53.987,8.833 53.972 C 11.014 53.951,11.588 53.843,11.000 53.565 C 10.462 53.310,11.401 53.251,13.869 53.386 C 16.038 53.505,17.591 53.430,17.669 53.204 C 17.741 52.993,19.535 52.771,21.655 52.711 C 23.775 52.650,25.305 52.466,25.055 52.303 C 24.805 52.139,25.500 52.097,26.600 52.210 C 28.129 52.366,28.412 52.318,27.800 52.003 C 27.171 51.680,27.343 51.638,28.600 51.811 C 29.786 51.973,30.045 51.921,29.600 51.609 C 29.162 51.302,29.477 51.261,30.761 51.455 C 32.075 51.654,32.448 51.601,32.228 51.245 C 32.014 50.899,32.245 50.836,33.066 51.016 C 33.972 51.215,34.079 51.172,33.600 50.806 C 33.111 50.432,33.168 50.395,33.909 50.604 C 35.131 50.948,37.280 50.453,36.942 49.906 C 36.779 49.643,36.866 49.594,37.164 49.778 C 37.792 50.166,40.490 49.669,40.211 49.217 C 40.094 49.029,40.360 48.969,40.802 49.085 C 41.243 49.200,41.845 49.095,42.139 48.851 C 42.433 48.607,42.792 48.525,42.937 48.670 C 43.082 48.815,43.200 48.741,43.200 48.507 C 43.200 47.959,47.007 47.034,47.643 47.426 C 47.945 47.613,48.019 47.554,47.842 47.268 C 47.643 46.946,47.950 46.879,48.880 47.040 C 49.935 47.222,50.080 47.174,49.600 46.801 C 49.117 46.426,49.221 46.384,50.134 46.584 C 50.932 46.759,51.183 46.696,50.983 46.373 C 50.789 46.059,50.957 45.996,51.516 46.173 C 52.594 46.515,54.466 46.031,54.135 45.496 C 53.982 45.248,54.069 45.196,54.348 45.368 C 55.034 45.792,57.261 45.223,56.942 44.706 C 56.783 44.448,56.865 44.393,57.148 44.568 C 57.841 44.996,60.061 44.423,59.738 43.899 C 59.566 43.622,59.710 43.557,60.134 43.719 C 60.500 43.860,60.800 43.817,60.800 43.625 C 60.800 43.432,61.160 43.369,61.600 43.484 C 62.040 43.599,62.400 43.516,62.400 43.299 C 62.400 42.882,65.381 41.963,66.400 42.066 C 67.895 42.216,68.622 42.002,68.000 41.594 C 67.578 41.318,67.803 41.279,68.762 41.463 C 69.736 41.650,70.044 41.594,69.841 41.267 C 69.659 40.972,69.776 40.893,70.169 41.043 C 70.754 41.268,76.386 39.361,76.800 38.799 C 77.217 38.231,80.760 37.128,81.231 37.419 C 81.562 37.624,81.621 37.558,81.412 37.219 C 81.182 36.848,81.325 36.786,81.950 36.984 C 82.443 37.141,82.800 37.080,82.800 36.840 C 82.800 36.612,83.100 36.540,83.466 36.681 C 83.949 36.866,84.042 36.791,83.804 36.406 C 83.579 36.042,83.630 35.971,83.969 36.181 C 84.575 36.555,90.400 34.483,90.400 33.893 C 90.400 33.658,90.518 33.585,90.663 33.730 C 90.808 33.875,91.123 33.830,91.364 33.630 C 92.096 33.022,96.071 31.562,95.800 32.000 C 95.661 32.225,96.504 32.028,97.674 31.561 C 98.843 31.095,100.517 30.456,101.393 30.141 C 102.270 29.827,103.409 29.293,103.925 28.955 C 105.281 28.066,109.865 26.398,110.154 26.687 C 110.289 26.823,110.400 26.763,110.400 26.554 C 110.400 26.345,110.835 26.138,111.367 26.094 C 111.899 26.050,114.407 25.112,116.940 24.009 C 119.472 22.907,122.196 21.901,122.993 21.774 C 123.790 21.648,126.097 20.916,128.121 20.148 C 130.144 19.380,131.980 18.699,132.200 18.636 C 132.592 18.523,132.832 18.430,135.541 17.344 C 137.187 16.684,138.424 17.143,137.148 17.940 C 136.691 18.225,136.434 18.268,136.579 18.034 C 136.739 17.775,136.601 17.702,136.223 17.846 C 135.883 17.977,135.721 18.273,135.864 18.504 C 136.007 18.735,135.949 18.816,135.735 18.684 C 135.275 18.399,132.557 20.133,130.958 21.733 C 129.658 23.033,128.112 23.990,128.608 23.187 C 129.046 22.478,124.014 25.942,122.677 27.269 C 122.059 27.883,121.429 28.367,121.277 28.345 C 120.446 28.226,119.987 28.455,120.238 28.862 C 120.400 29.123,120.349 29.216,120.122 29.075 C 119.717 28.825,116.400 31.029,116.400 31.548 C 116.400 31.841,114.244 33.214,113.710 33.261 C 113.230 33.303,111.148 34.791,109.600 36.199 C 108.830 36.899,107.303 37.983,106.206 38.608 C 105.109 39.233,103.399 40.490,102.406 41.401 C 101.413 42.313,99.963 43.442,99.184 43.910 C 98.405 44.379,96.973 45.568,96.001 46.554 C 95.030 47.539,94.117 48.272,93.972 48.183 C 93.827 48.093,92.478 49.185,90.974 50.610 C 89.471 52.034,88.029 53.200,87.771 53.200 C 87.513 53.200,86.571 53.992,85.679 54.961 C 84.786 55.930,83.988 56.655,83.905 56.572 C 83.823 56.489,82.595 57.622,81.178 59.088 C 79.760 60.555,78.960 61.495,79.400 61.178 C 79.840 60.861,79.345 61.449,78.300 62.486 C 76.537 64.234,76.187 64.937,76.379 66.340 C 76.420 66.637,76.260 66.760,76.023 66.614 C 75.736 66.437,75.614 66.949,75.660 68.147 C 75.736 70.166,77.059 72.000,78.440 72.000 C 78.884 72.000,79.149 72.159,79.028 72.354 C 78.903 72.557,83.979 72.698,90.905 72.684 C 97.677 72.670,102.560 72.517,102.000 72.335 C 101.221 72.083,101.334 72.049,102.509 72.182 C 103.417 72.285,103.923 72.199,103.780 71.967 C 103.632 71.729,104.202 71.673,105.271 71.823 C 106.625 72.012,106.870 71.964,106.400 71.602 C 105.929 71.239,106.143 71.193,107.400 71.385 C 108.495 71.552,108.817 71.507,108.421 71.242 C 108.025 70.978,108.394 70.929,109.582 71.088 C 110.757 71.246,111.237 71.184,111.061 70.898 C 110.894 70.628,111.111 70.556,111.662 70.700 C 112.305 70.868,112.442 70.792,112.201 70.401 C 111.980 70.044,112.032 69.972,112.364 70.178 C 112.947 70.538,115.700 70.085,115.444 69.671 C 115.345 69.512,115.980 69.382,116.853 69.382 C 117.757 69.382,118.585 69.149,118.775 68.840 C 118.960 68.541,119.311 68.421,119.555 68.572 C 119.800 68.724,120.000 68.636,120.000 68.377 C 120.000 68.104,120.335 67.994,120.800 68.116 C 121.240 68.231,121.600 68.185,121.600 68.015 C 121.600 67.534,125.075 66.675,125.630 67.019 C 125.962 67.224,126.022 67.158,125.812 66.819 C 125.582 66.448,125.725 66.386,126.350 66.584 C 127.433 66.928,128.895 66.478,128.544 65.909 C 128.383 65.648,128.463 65.592,128.748 65.768 C 129.434 66.192,131.661 65.623,131.342 65.106 C 131.183 64.848,131.265 64.793,131.548 64.968 C 132.097 65.307,134.486 64.864,134.242 64.467 C 134.152 64.320,134.632 64.160,135.309 64.111 C 135.986 64.061,136.643 63.865,136.770 63.674 C 137.157 63.092,140.791 62.021,141.482 62.287 C 141.915 62.453,142.035 62.380,141.842 62.068 C 141.683 61.811,141.729 61.600,141.944 61.600 C 142.159 61.600,142.664 61.493,143.067 61.362 C 143.692 61.159,143.712 61.194,143.200 61.600 C 142.689 62.005,142.709 62.040,143.337 61.836 C 143.743 61.704,144.506 61.488,145.034 61.356 C 145.565 61.223,145.879 60.927,145.735 60.696 C 145.588 60.457,145.668 60.395,145.920 60.550 C 146.437 60.870,148.470 60.437,148.237 60.057 C 148.150 59.916,148.638 59.779,149.322 59.753 C 150.005 59.728,150.629 59.513,150.708 59.276 C 150.787 59.039,151.140 58.955,151.491 59.090 C 151.891 59.244,152.031 59.174,151.865 58.905 C 151.696 58.631,151.890 58.551,152.399 58.684 C 152.840 58.799,153.200 58.721,153.200 58.510 C 153.200 57.992,156.300 57.091,156.870 57.443 C 157.168 57.627,157.212 57.543,156.999 57.199 C 156.758 56.808,156.895 56.732,157.538 56.900 C 158.097 57.046,158.307 56.973,158.135 56.695 C 157.961 56.413,158.126 56.363,158.612 56.549 C 159.559 56.913,163.240 55.988,162.918 55.468 C 162.785 55.252,162.880 55.202,163.129 55.356 C 163.641 55.672,166.800 54.923,166.801 54.485 C 166.801 54.328,167.360 54.180,168.043 54.155 C 168.726 54.131,169.425 53.883,169.598 53.604 C 169.770 53.325,170.111 53.221,170.355 53.372 C 170.600 53.524,170.800 53.472,170.800 53.259 C 170.800 52.784,173.754 52.187,175.400 52.329 C 176.365 52.412,176.482 52.345,176.000 51.984 C 175.527 51.630,175.639 51.588,176.534 51.784 C 177.261 51.943,177.576 51.885,177.414 51.622 C 177.249 51.356,177.610 51.302,178.442 51.468 C 179.418 51.664,179.650 51.604,179.412 51.220 C 179.180 50.843,179.330 50.787,180.000 51.000 C 180.670 51.213,180.820 51.156,180.588 50.781 C 180.380 50.444,180.438 50.376,180.764 50.578 C 181.339 50.933,184.101 50.488,183.851 50.080 C 183.757 49.926,184.415 49.790,185.314 49.778 C 186.213 49.766,187.020 49.540,187.108 49.275 C 187.196 49.011,187.430 48.895,187.627 49.017 C 188.126 49.325,190.835 48.780,190.610 48.417 C 190.345 47.988,194.524 47.127,195.432 47.424 C 196.072 47.634,196.100 47.600,195.600 47.223 C 195.135 46.872,195.359 46.825,196.600 47.015 C 197.857 47.207,198.071 47.161,197.600 46.798 C 197.119 46.427,197.225 46.385,198.134 46.584 C 198.932 46.759,199.183 46.696,198.983 46.373 C 198.787 46.055,198.964 45.998,199.559 46.187 C 200.710 46.552,202.882 46.056,202.542 45.506 C 202.379 45.243,202.466 45.194,202.764 45.378 C 203.494 45.829,206.079 45.251,205.745 44.712 C 205.561 44.413,205.709 44.356,206.188 44.540 C 207.194 44.926,209.657 44.415,209.331 43.888 C 209.167 43.623,209.319 43.560,209.734 43.719 C 210.100 43.860,210.400 43.797,210.400 43.580 C 210.400 43.362,210.840 43.264,211.377 43.361 C 211.914 43.459,212.412 43.363,212.484 43.147 C 212.556 42.932,213.268 42.721,214.067 42.678 C 214.866 42.635,215.422 42.441,215.303 42.246 C 215.184 42.052,215.642 41.974,216.322 42.074 C 217.076 42.185,217.462 42.101,217.313 41.860 C 217.166 41.621,217.354 41.574,217.788 41.740 C 218.794 42.126,221.257 41.615,220.931 41.088 C 220.763 40.817,220.928 40.763,221.388 40.940 C 222.391 41.325,225.051 40.803,224.340 40.361 C 223.970 40.130,224.114 40.044,224.800 40.086 C 226.691 40.201,228.047 39.999,227.823 39.637 C 227.700 39.438,227.987 39.376,228.462 39.500 C 228.972 39.634,229.226 39.566,229.084 39.335 C 228.938 39.100,229.334 39.017,230.078 39.126 C 231.021 39.265,231.237 39.184,230.991 38.786 C 230.760 38.412,230.854 38.335,231.322 38.515 C 231.681 38.652,232.062 38.623,232.169 38.450 C 232.471 37.961,236.731 37.110,237.256 37.434 C 237.557 37.620,237.616 37.550,237.422 37.236 C 237.195 36.869,237.490 36.818,238.618 37.030 C 239.721 37.237,240.039 37.187,239.824 36.839 C 239.614 36.499,239.837 36.444,240.626 36.642 C 241.294 36.810,241.626 36.766,241.481 36.531 C 241.340 36.303,241.726 36.216,242.421 36.318 C 243.107 36.418,243.600 36.310,243.600 36.058 C 243.600 35.820,243.870 35.729,244.200 35.855 C 244.530 35.982,244.800 35.918,244.800 35.712 C 244.800 35.507,245.340 35.418,246.000 35.515 C 246.703 35.618,247.200 35.511,247.200 35.258 C 247.200 35.020,247.470 34.929,247.800 35.055 C 248.130 35.182,248.400 35.118,248.400 34.912 C 248.400 34.707,248.940 34.618,249.600 34.715 C 250.264 34.812,250.800 34.709,250.800 34.483 C 250.800 34.258,251.188 34.176,251.663 34.300 C 252.277 34.461,252.438 34.385,252.222 34.036 C 252.035 33.732,252.125 33.586,252.460 33.650 C 252.757 33.707,254.620 33.377,256.600 32.916 C 258.580 32.455,261.080 32.076,262.155 32.074 C 263.230 32.072,264.234 31.869,264.387 31.622 C 264.542 31.370,264.985 31.296,265.398 31.454 C 265.887 31.642,266.040 31.588,265.857 31.292 C 265.667 30.985,266.002 30.915,266.940 31.068 C 267.687 31.189,268.411 31.105,268.550 30.882 C 268.688 30.658,269.161 30.569,269.600 30.684 C 270.065 30.806,270.400 30.696,270.400 30.423 C 270.400 30.164,270.574 30.060,270.787 30.192 C 271.326 30.525,275.228 29.969,274.995 29.592 C 274.891 29.423,275.209 29.283,275.703 29.280 C 277.870 29.267,279.200 29.051,279.200 28.714 C 279.200 28.514,279.515 28.389,279.900 28.436 C 280.285 28.484,280.870 28.421,281.200 28.297 C 282.469 27.819,286.828 27.170,287.204 27.403 C 287.422 27.537,287.600 27.462,287.600 27.236 C 287.600 26.996,288.546 26.850,289.876 26.885 C 291.325 26.924,292.209 26.773,292.310 26.470 C 292.397 26.209,292.627 26.093,292.820 26.212 C 293.013 26.332,294.843 26.136,296.886 25.778 C 298.929 25.420,301.568 25.040,302.752 24.934 C 303.935 24.828,305.345 24.573,305.885 24.368 C 306.425 24.162,306.997 24.075,307.156 24.173 C 307.314 24.271,308.154 24.185,309.022 23.981 C 314.035 22.807,326.553 21.435,331.200 21.550 C 331.970 21.570,332.870 21.486,333.200 21.364 C 333.745 21.163,338.544 20.726,340.000 20.744 C 340.330 20.748,342.580 20.571,345.000 20.350 C 347.420 20.130,351.644 19.862,354.387 19.757 C 357.130 19.651,359.470 19.438,359.587 19.282 C 359.704 19.127,362.950 18.937,366.800 18.861 C 370.650 18.784,375.420 18.658,377.400 18.580 C 379.380 18.502,382.913 18.363,385.251 18.271 C 391.609 18.020,394.434 15.389,391.700 12.263 C 391.183 11.671,391.157 11.542,391.600 11.766 C 391.930 11.933,391.750 11.698,391.200 11.244 C 390.171 10.393,378.000 9.902,378.000 10.710 C 378.000 10.881,376.065 10.981,373.700 10.933 C 370.732 10.872,369.772 10.953,370.600 11.194 C 371.356 11.413,369.876 11.468,366.600 11.342 C 362.887 11.200,361.572 11.264,362.000 11.565 C 362.483 11.905,362.385 11.989,361.500 11.994 C 360.895 11.997,360.400 11.820,360.400 11.600 C 360.400 11.069,358.119 11.083,357.790 11.616 C 357.629 11.876,356.608 11.940,355.066 11.786 C 353.463 11.626,352.790 11.673,353.142 11.919 C 353.750 12.346,343.135 13.054,342.454 12.633 C 342.234 12.498,341.928 12.594,341.771 12.846 C 341.577 13.161,340.464 13.238,338.244 13.091 C 336.373 12.968,335.508 13.009,336.200 13.189 C 336.930 13.379,335.834 13.452,333.400 13.377 C 330.292 13.281,329.801 13.331,331.200 13.599 C 332.644 13.877,332.327 13.915,329.600 13.792 C 327.565 13.699,326.521 13.771,327.000 13.971 C 327.477 14.169,326.711 14.220,325.100 14.097 C 323.542 13.978,322.400 14.049,322.400 14.265 C 322.400 14.471,321.725 14.585,320.900 14.519 C 319.678 14.421,319.548 14.473,320.200 14.798 C 320.835 15.116,320.726 15.149,319.672 14.961 C 317.726 14.614,312.558 15.191,313.250 15.678 C 313.631 15.946,313.444 15.987,312.644 15.811 C 311.124 15.477,307.142 15.982,307.444 16.471 C 307.588 16.703,307.097 16.742,306.182 16.570 C 305.155 16.378,304.768 16.424,304.950 16.719 C 305.127 17.005,304.679 17.099,303.600 17.000 C 302.664 16.914,302.082 17.009,302.216 17.226 C 302.464 17.627,300.514 17.814,297.600 17.667 C 296.201 17.597,295.934 17.676,296.400 18.021 C 296.857 18.359,296.571 18.408,295.200 18.227 C 293.841 18.047,293.547 18.096,294.000 18.427 C 294.466 18.767,294.346 18.809,293.458 18.614 C 291.859 18.263,288.551 18.786,289.260 19.278 C 289.635 19.538,289.527 19.576,288.905 19.401 C 287.591 19.032,284.175 19.603,284.860 20.078 C 285.235 20.338,285.127 20.376,284.505 20.201 C 283.421 19.896,279.934 20.370,280.192 20.787 C 280.293 20.951,279.904 20.994,279.328 20.884 C 278.732 20.770,278.381 20.845,278.512 21.058 C 278.646 21.274,278.161 21.365,277.372 21.273 C 276.468 21.167,276.000 21.280,276.000 21.603 C 276.000 21.892,275.680 22.010,275.219 21.889 C 274.790 21.777,274.379 21.864,274.306 22.083 C 274.233 22.301,273.073 22.507,271.729 22.540 C 270.385 22.573,269.384 22.763,269.505 22.962 C 269.630 23.170,269.166 23.213,268.421 23.064 C 266.663 22.713,263.746 23.177,264.468 23.694 C 264.858 23.974,264.805 24.012,264.268 23.838 C 263.186 23.487,260.365 24.020,260.673 24.518 C 260.835 24.780,260.671 24.836,260.234 24.668 C 259.241 24.288,256.358 24.808,256.669 25.312 C 256.815 25.548,256.728 25.603,256.466 25.441 C 255.886 25.082,251.149 25.993,251.408 26.413 C 251.514 26.585,251.241 26.631,250.801 26.516 C 250.360 26.401,250.000 26.469,250.000 26.668 C 250.000 27.033,249.086 27.250,247.138 27.347 C 246.554 27.376,246.160 27.535,246.262 27.700 C 246.460 28.020,244.927 28.197,243.073 28.068 C 242.453 28.025,242.036 28.134,242.145 28.311 C 242.254 28.488,241.702 28.558,240.917 28.466 C 240.002 28.359,239.582 28.448,239.746 28.713 C 239.905 28.970,239.676 29.040,239.138 28.900 C 238.495 28.732,238.358 28.808,238.599 29.199 C 238.818 29.552,238.768 29.627,238.447 29.429 C 237.890 29.085,234.720 29.545,234.958 29.935 C 235.047 30.081,234.406 30.209,233.533 30.220 C 232.660 30.232,231.823 30.412,231.673 30.620 C 231.422 30.970,231.108 31.051,229.100 31.288 C 228.715 31.333,228.400 31.499,228.400 31.657 C 228.400 31.997,224.188 32.962,222.900 32.917 C 222.405 32.899,222.000 33.067,222.000 33.289 C 222.000 33.511,221.550 33.607,221.000 33.502 C 220.450 33.397,220.000 33.460,220.000 33.643 C 220.000 33.826,219.730 33.871,219.400 33.745 C 219.070 33.618,218.800 33.682,218.800 33.888 C 218.800 34.093,218.234 34.178,217.543 34.077 C 216.800 33.968,216.383 34.049,216.523 34.276 C 216.654 34.487,216.454 34.659,216.080 34.658 C 214.247 34.656,213.170 34.829,213.336 35.100 C 213.436 35.265,212.783 35.443,211.885 35.496 C 210.987 35.549,210.108 35.819,209.932 36.096 C 209.756 36.373,209.609 36.483,209.606 36.340 C 209.603 36.197,208.334 36.508,206.788 37.031 C 205.241 37.554,203.261 38.031,202.388 38.091 C 201.515 38.151,200.801 38.354,200.801 38.543 C 200.800 38.731,200.545 38.788,200.234 38.669 C 199.672 38.453,190.002 40.706,187.900 41.542 C 187.295 41.783,186.800 41.873,186.800 41.741 C 186.800 41.610,186.575 41.681,186.300 41.899 C 185.781 42.311,183.338 42.905,181.600 43.042 C 180.369 43.140,179.598 43.318,174.800 44.617 C 172.710 45.183,170.505 45.746,169.900 45.868 C 169.295 45.991,168.800 46.250,168.800 46.445 C 168.800 46.640,168.665 46.763,168.500 46.717 C 168.335 46.672,167.263 46.954,166.118 47.344 C 164.973 47.733,163.494 48.068,162.832 48.087 C 162.169 48.106,161.722 48.273,161.837 48.460 C 161.952 48.646,161.721 48.771,161.323 48.736 C 159.819 48.605,158.762 48.814,158.997 49.195 C 159.132 49.413,158.990 49.494,158.683 49.376 C 158.375 49.258,156.791 49.633,155.162 50.209 C 153.533 50.785,151.795 51.355,151.300 51.475 C 150.805 51.595,150.400 51.830,150.400 51.997 C 150.400 52.423,147.811 53.059,145.676 53.157 C 145.086 53.185,144.856 53.367,145.038 53.662 C 145.209 53.937,145.149 54.015,144.890 53.855 C 144.394 53.549,139.275 55.182,136.000 56.691 C 134.790 57.249,133.305 57.726,132.701 57.752 C 132.096 57.779,131.601 57.954,131.601 58.143 C 131.600 58.331,131.321 58.378,130.979 58.247 C 130.610 58.106,130.462 58.176,130.613 58.421 C 130.776 58.685,130.497 58.739,129.834 58.573 C 129.201 58.414,128.800 58.481,128.800 58.744 C 128.800 58.982,128.501 59.060,128.134 58.919 C 127.651 58.734,127.558 58.809,127.796 59.194 C 128.016 59.550,127.969 59.628,127.652 59.432 C 126.966 59.008,124.739 59.577,125.058 60.094 C 125.219 60.354,125.135 60.407,124.845 60.228 C 124.377 59.938,120.404 61.121,119.991 61.672 C 119.877 61.826,119.337 62.036,118.791 62.139 C 118.246 62.242,117.303 62.519,116.696 62.755 C 116.088 62.991,115.058 63.121,114.405 63.045 C 113.707 62.964,113.318 63.067,113.460 63.296 C 113.607 63.534,113.350 63.575,112.800 63.400 C 112.130 63.187,111.980 63.244,112.212 63.619 C 112.413 63.944,112.362 64.024,112.069 63.842 C 111.395 63.426,108.758 64.009,109.065 64.506 C 109.221 64.758,109.129 64.803,108.833 64.621 C 108.056 64.140,104.535 64.777,105.232 65.272 C 105.683 65.592,105.653 65.628,105.091 65.447 C 104.007 65.097,100.630 65.643,101.271 66.064 C 101.586 66.271,101.073 66.315,100.000 66.173 C 98.833 66.019,98.386 66.067,98.729 66.310 C 99.069 66.550,98.137 66.623,96.129 66.514 C 93.862 66.391,93.165 66.460,93.600 66.766 C 94.032 67.070,92.482 67.189,88.066 67.194 L 81.933 67.200 83.166 65.642 C 83.845 64.786,84.400 63.919,84.400 63.717 C 84.400 63.192,86.610 61.144,86.883 61.417 C 87.008 61.542,87.986 60.647,89.055 59.427 C 90.125 58.208,91.156 57.208,91.347 57.205 C 91.897 57.197,94.612 54.680,94.490 54.291 C 94.430 54.098,94.557 54.050,94.773 54.183 C 94.988 54.316,95.463 53.970,95.828 53.413 C 96.193 52.856,96.700 52.400,96.955 52.400 C 97.209 52.400,98.269 51.619,99.309 50.664 C 100.349 49.709,101.200 49.034,101.201 49.164 C 101.201 49.294,101.762 48.770,102.447 48.000 C 103.132 47.230,103.547 46.870,103.370 47.200 C 103.004 47.878,102.979 47.894,106.200 45.385 C 107.300 44.528,108.560 43.407,109.000 42.893 C 109.440 42.378,110.108 41.913,110.485 41.858 C 111.273 41.742,114.800 39.294,114.800 38.861 C 114.800 38.555,117.195 37.021,117.694 37.008 C 117.855 37.004,119.187 36.100,120.653 35.000 C 122.119 33.900,123.787 32.730,124.359 32.400 C 124.932 32.070,125.490 31.689,125.600 31.554 C 125.710 31.419,126.168 31.193,126.619 31.053 C 127.069 30.912,128.491 29.907,129.778 28.819 C 131.065 27.730,132.244 26.876,132.396 26.920 C 132.736 27.018,136.230 24.791,137.589 23.611 C 138.132 23.139,139.609 22.202,140.870 21.530 C 142.132 20.858,143.847 19.725,144.682 19.013 C 145.517 18.300,146.813 17.402,147.563 17.016 C 154.715 13.334,154.400 9.091,146.988 9.262 C 144.488 9.320,143.009 9.498,143.305 9.706 " stroke="none" fill="#D65A31" fill-rule="evenodd"></path></g></svg>